<svg aria-hidden="true" style="position: absolute; width: 0; height: 0; overflow: hidden;" version="1.1" xmlns="http://www.w3.org/2000/svg" xmlns:xlink="http://www.w3.org/1999/xlink">
<defs>
<symbol id="icon-figma" viewBox="0 0 32 32">
<path d="M20.692 12.227c-2.084 0-3.773 1.689-3.773 3.773s1.689 3.773 3.773 3.773v0h0.122c2.084 0 3.773-1.689 3.773-3.773s-1.689-3.773-3.773-3.773v0zM20.814 21.611h-0.122c-3.099 0-5.611-2.512-5.611-5.611s2.512-5.611 5.611-5.611v0h0.122c3.099 0 5.611 2.512 5.611 5.611s-2.512 5.611-5.611 5.611v0zM11.186 21.611c0 0-0.001 0-0.001 0-2.084 0-3.773 1.689-3.773 3.773s1.689 3.773 3.773 3.773c0.011 0 0.023 0 0.034 0h-0.002c0.003 0 0.007 0 0.011 0 2.121 0 3.843-1.714 3.854-3.833v-3.713zM11.216 30.996c-0.013 0-0.029 0-0.045 0-3.099 0-5.611-2.512-5.611-5.611s2.512-5.611 5.611-5.611c0.005 0 0.010 0 0.015 0h5.733v5.55c-0.012 3.135-2.557 5.672-5.693 5.672-0.003 0-0.006 0-0.009 0v0zM11.186 12.227c-2.084 0-3.773 1.689-3.773 3.773s1.689 3.773 3.773 3.773v0h3.895v-7.545zM16.918 21.611h-5.732c-3.099 0-5.611-2.512-5.611-5.611s2.512-5.611 5.611-5.611v0h5.733v11.222zM11.186 2.843c-2.084 0-3.773 1.689-3.773 3.773s1.689 3.773 3.773 3.773v0h3.895v-7.547zM16.918 12.227h-5.732c-3.099 0-5.612-2.512-5.612-5.612s2.512-5.612 5.612-5.612v0h5.733v11.223zM16.918 10.389h3.895c2.080-0.005 3.764-1.692 3.764-3.773s-1.684-3.768-3.764-3.773h-3.895zM20.814 12.227h-5.733v-11.223h5.733c3.099 0 5.612 2.512 5.612 5.612s-2.512 5.612-5.612 5.612v0z"></path>
</symbol>
<symbol id="icon-github" viewBox="0 0 32 32">
<path d="M5.433 3.992c0.078-1.373 0.406-1.971 1.347-2.45 1.012-0.516 2.609-0.276 4.488 0.675 0.809 0.41 0.892 0.418 2.31 0.236 1.885-0.242 4.312-0.241 6.052 0.002 1.316 0.184 1.402 0.175 2.213-0.236 2.667-1.35 4.772-1.262 5.535 0.232 0.381 0.746 0.451 2.681 0.156 4.278-0.164 0.885-0.146 0.995 0.248 1.576 2.773 4.086 0.775 10.71-3.977 13.182-0.364 0.189-0.67 0.306-0.92 0.402-0.767 0.293-1 0.382-0.718 1.729 0.136 0.648 0.299 2.26 0.363 3.582 0.116 2.389 0.114 2.406-0.305 2.893-0.57 0.663-1.393 0.674-1.95 0.027-0.363-0.422-0.399-0.622-0.399-2.252 0-2.408-0.264-4.009-0.888-5.381-0.742-1.632-0.192-2.241 1.504-2.606 2.358-0.507 4.199-1.962 5.226-4.129 0.976-2.060 1.123-4.906-0.641-6.637-0.502-0.596-0.537-1.136-0.178-2.765 0.134-0.609 0.246-1.394 0.249-1.745 0.005-0.555-0.045-0.638-0.386-0.638-0.216 0-1.039 0.314-1.83 0.697l-1.262 0.612c-0.115 0.056-0.243 0.077-0.37 0.062-3.21-0.368-6.26-0.374-9.486 0.001-0.127 0.015-0.256-0.007-0.371-0.062l-1.262-0.612c-0.791-0.384-1.615-0.698-1.83-0.698-0.498 0-0.506 0.368-0.052 2.554 0.277 1.335 0.464 1.632-0.338 2.7-1.202 1.6-1.503 3.587-0.858 5.675 0.813 2.631 2.803 4.408 5.6 5.001 1.687 0.357 2.127 0.824 1.483 2.758-0.507 1.522-0.827 1.914-1.564 1.914-0.991 0-1.612-0.859-1.27-1.757 0.15-0.396 0.106-0.438-0.823-0.777-2.835-1.033-5.003-3.35-5.994-6.404-0.766-2.361-0.429-5.433 0.8-7.29 0.418-0.632 0.425-0.686 0.23-1.896-0.111-0.685-0.17-1.788-0.133-2.451z"></path>
<path d="M4.443 21.261c-0.408-0.613-1.236-0.778-1.849-0.37s-0.778 1.236-0.37 1.849c0.302 0.452 0.662 0.824 0.969 1.13 0.056 0.057 0.111 0.111 0.165 0.164 0.257 0.255 0.483 0.48 0.711 0.747 0.503 0.591 1.006 1.387 1.291 2.813 0.127 0.636 0.584 0.978 0.837 1.128 0.275 0.162 0.574 0.258 0.821 0.32 0.505 0.127 1.118 0.193 1.7 0.232 0.639 0.042 1.331 0.056 1.949 0.060 0 0.736 0.597 1.332 1.333 1.332s1.333-0.597 1.333-1.333v-1.333c0-0.736-0.597-1.333-1.333-1.333-0.126 0-0.262 0-0.406 0.001-0.782 0.002-1.802 0.005-2.701-0.054-0.433-0.029-0.789-0.069-1.050-0.119-0.402-1.579-1.052-2.629-1.745-3.443-0.306-0.36-0.624-0.674-0.882-0.93-0.048-0.048-0.095-0.094-0.138-0.137-0.298-0.298-0.493-0.509-0.635-0.724z"></path>
</symbol>
<symbol id="icon-check" viewBox="0 0 32 32">
<path d="M27 4l-15 15-7-7-5 5 12 12 20-20z"></path>
</symbol>
</defs>
</svg>
